<?xml version="1.0" encoding="UTF-8"?>
<svg id="Layer_2" data-name="Layer 2" xmlns="http://www.w3.org/2000/svg" viewBox="0 0 90.16 89.98">
  <defs>
    <style>
      .cls-1 {
        fill: #fff;
        stroke-width: 0px;
      }
    </style>
  </defs>
  <g id="Hi_Fi_Text_Logo" data-name="Hi!Fi Text Logo">
    <g id="o8Ov3Y.tif">
      <path class="cls-1" d="M82.22,45.72c-.28-5.69,2.72-9.35,7.94-11.39-1.14-4.82-2.99-9.32-5.58-13.51-5.64,2.81-10.58.91-13.13-1.66-3.94-3.97-4.4-8.55-2.1-13.56-4.22-2.6-8.74-4.47-13.57-5.6-1.66,4.76-4.83,7.76-9.86,8.12-5.9.41-9.68-2.64-11.73-8.07-4.84,1.18-9.35,3.05-13.53,5.68,2.2,4.59,2.05,8.94-1.29,12.74-3.86,4.38-8.64,4.89-13.88,2.56-2.56,4.22-4.39,8.73-5.49,13.53,5.33,2.44,7.94,5.68,8.04,10.14.11,5.62-2.72,9.27-7.9,11.32,1.19,4.79,3.06,9.27,5.69,13.42,4.89-2.14,9.39-1.73,13.15,2.05,3.72,3.72,4.13,8.18,2.05,12.98,4.21,2.56,8.7,4.41,13.51,5.51,1.8-4.62,5.02-7.46,9.96-7.74,5.6-.31,9.3,2.56,11.41,7.69,4.81-1.16,9.31-3,13.46-5.58-2.02-4.63-1.75-8.95,1.65-12.64,3.78-4.11,8.41-4.64,13.49-2.46,2.59-4.19,4.47-8.68,5.61-13.46-4.73-1.79-7.65-5.01-7.9-10.07ZM45.08,71.02c-6.98,0-13.53-2.72-18.46-7.66-4.92-4.93-7.62-11.47-7.6-18.42.03-14.31,11.72-25.97,26.06-25.97h.01c6.97,0,13.52,2.71,18.43,7.63,4.92,4.93,7.62,11.47,7.61,18.44-.02,14.33-11.7,25.98-26.05,25.98Z"/>
    </g>
  </g>
</svg>